HIERARCHY
ROOT Hips
{
  OFFSET 196.326 95.9168 97.7182
  CHANNELS 6 Xposition Yposition Zposition Zrotation Xrotation Yrotation
  JOINT LeftUpLeg
  {
    OFFSET 8.64259 1.95398 -2.38835
    CHANNELS 3 Zrotation Xrotation Yrotation
    JOINT LeftLeg
    {
      OFFSET 43.7702 0 0
      CHANNELS 3 Zrotation Xrotation Yrotation
      JOINT LeftFoot
      {
        OFFSET 40.6238 0 0
        CHANNELS 3 Zrotation Xrotation Yrotation
        JOINT LeftToeBase
        {
          OFFSET 12.7242 0 0
          CHANNELS 3 Zrotation Xrotation Yrotation
          End Site
          {
            OFFSET 0 0 0
          }
        }
      }
    }
  }
  JOINT RightUpLeg
  {
    OFFSET -8.2249 1.95398 -2.59336
    CHANNELS 3 Zrotation Xrotation Yrotation
    JOINT RightLeg
    {
      OFFSET 43.5653 0 0
      CHANNELS 3 Zrotation Xrotation Yrotation
      JOINT RightFoot
      {
        OFFSET 40.6238 0 0
        CHANNELS 3 Zrotation Xrotation Yrotation
        JOINT RightToeBase
        {
          OFFSET 12.7242 0 0
          CHANNELS 3 Zrotation Xrotation Yrotation
          End Site
          {
            OFFSET 0 0 0
          }
        }
      }
    }
  }
  JOINT Spine
  {
    OFFSET 0.165834 0.87714 6.61349
    CHANNELS 3 Zrotation Xrotation Yrotation
    JOINT Spine1
    {
      OFFSET 7.38963 1.71661e-005 0
      CHANNELS 3 Zrotation Xrotation Yrotation
      JOINT Spine2
      {
        OFFSET 11.9445 1.14441e-005 0
        CHANNELS 3 Zrotation Xrotation Yrotation
        JOINT Spine3
        {
          OFFSET 14.7254 4.19617e-005 0
          CHANNELS 3 Zrotation Xrotation Yrotation
          JOINT Spine4
          {
            OFFSET 10.9679 0 0
            CHANNELS 3 Zrotation Xrotation Yrotation
            JOINT RightShoulder
            {
              OFFSET 2.46616 -1.6653 3.69651
              CHANNELS 3 Zrotation Xrotation Yrotation
              JOINT RightArm
              {
                OFFSET 13.0012 0 0
                CHANNELS 3 Zrotation Xrotation Yrotation
                JOINT RightForeArm
                {
                  OFFSET 28.7848 1.52588e-005 0
                  CHANNELS 3 Zrotation Xrotation Yrotation
                  JOINT RightHand
                  {
                    OFFSET 26.5688 1.52588e-005 0
                    CHANNELS 3 Zrotation Xrotation Yrotation
                    End Site
                    {
                      OFFSET 0 0 0
                    }
                  }
                }
              }
            }
            JOINT LeftShoulder
            {
              OFFSET 2.38034 -1.29275 -3.75231
              CHANNELS 3 Zrotation Xrotation Yrotation
              JOINT LeftArm
              {
                OFFSET 16.3182 6.10351e-005 0
                CHANNELS 3 Zrotation Xrotation Yrotation
                JOINT LeftForeArm
                {
                  OFFSET 27.0901 0 0
                  CHANNELS 3 Zrotation Xrotation Yrotation
                  JOINT LeftHand
                  {
                    OFFSET 24.5451 1.52588e-005 0
                    CHANNELS 3 Zrotation Xrotation Yrotation
                    End Site
                    {
                      OFFSET 0 0 0
                    }
                  }
                }
              }
            }
            JOINT Neck
            {
              OFFSET 5.0226 -0.0266342 0
              CHANNELS 3 Zrotation Xrotation Yrotation
              JOINT Head
              {
                OFFSET 6.69363 2.86102e-005 0
                CHANNELS 3 Zrotation Xrotation Yrotation
                End Site
                {
                  OFFSET 0 0 0
                }
              }
            }
          }
        }
      }
    }
  }
}
MOTION
Frames:	17
Frame Time:	0.0416667
42.986 86.1733 -35.3391 77.0762 -56.087 81.3459 -159.691 58.878 85.2827 -73.5344 13.8058 -1.78856 52.768 0.0195525 12.6217 47.3908 18.4921 -9.05784 -179.198 34.4135 77.6696 -48.4285 5.16513 -6.19853 65.6312 -4.68422 -2.50741 57.4572 4.18098 12.4823 0.199514 9.26611 -90.3314 8.34195 0.252173 -0.670322 -3.32915 0.22241 -0.680778 -25.8635 0.441953 -0.563557 -5.85081 0.441974 -0.563546 82.679 -46.2946 -113.285 25.657 2.51997 8.62638 3.98618 1.30945 -80.785 -33.2034 -1.6312 -0.195125 -105.872 -42.0563 51.8163 -48.076 22.9202 23.9331 5.74952 15.0746 -45.3205 5.3547 0.337977 1.9686 17.8508 18.4501 -3.4185 8.33168 21.4979 20.3999 
45.9893 87.7109 -32.5148 76.0154 -53.1602 80.6421 -157.144 60.4557 85.4911 -67.5653 13.9372 -3.04628 48.7943 -5.08551 8.30325 46.9879 17.93 -9.99632 179.781 29.4707 77.4675 -43.4777 5.84233 -6.50569 64.3388 -4.14695 -2.2299 58.8219 4.09533 10.9092 0.273363 9.08506 -90.1658 8.70414 0.471869 -0.358419 -2.96677 0.45567 -0.378844 -25.5025 0.557789 -0.200011 -5.4898 0.557788 -0.200025 83.4109 -45.5323 -112.43 26.6613 1.3441 8.67752 0.757107 1.62444 -86.3713 -32.9993 -1.70533 0.283799 -104.499 -41.3278 53.5326 -52.3714 23.8983 29.9645 7.59228 13.9596 -50.8268 7.65132 0.392197 1.12228 18.6944 17.5053 -4.62924 7.48341 20.877 20.9756 
49.7685 89.7889 -29.7399 75.5317 -49.77 80.9775 -154.584 60.5142 84.9537 -61.3993 15.2908 -4.79476 46.7661 -7.59062 5.10275 38.4781 10.2984 -6.95206 178.134 23.2763 77.2243 -36.8961 4.04845 -6.43698 60.1254 -2.40313 -1.27683 58.8438 3.43322 7.62458 0.31164 8.86263 -90.0943 9.14947 0.579388 -0.228467 -2.52138 0.568773 -0.253755 -25.0576 0.621281 -0.0437557 -5.04493 0.62126 -0.0437781 84.5117 -45.3399 -110.761 27.5448 -0.771829 9.59671 -2.25524 1.63613 -90.5831 -32.8896 -1.85774 1.01035 -103.031 -40.5042 55.3915 -56.5483 25.0361 34.9827 7.32391 10.5513 -55.7016 7.16769 0.378887 1.25124 17.5514 16.003 -5.7422 8.02312 19.7763 20.5368 
54.7352 91.9825 -27.1506 74.1045 -46.7667 80.6744 -153.24 59.0056 84.2886 -54.0347 18.4684 -6.96537 43.9774 -9.93247 3.32247 36.0827 7.86573 -10.6052 176.014 18.0507 76.241 -29.4542 2.19318 -5.48645 51.9763 0.305444 0.639822 56.8736 3.54528 9.46852 0.33767 8.5119 -90.0309 9.85051 0.659135 -0.114371 -1.82028 0.653454 -0.143275 -24.3568 0.663027 0.0890148 -4.34415 0.663035 0.0890177 85.3709 -45.2354 -109.433 28.1826 -3.75223 11.3308 -4.30245 2.0101 -94.6181 -31.3187 -1.56273 0.369152 -101.418 -39.6933 57.5387 -60.8845 26.1978 39.2814 6.48349 6.97757 -60.2992 8.34758 0.322533 0.0642946 14.9895 14.83 -6.49405 8.75642 18.828 19.9982 
60.2569 94.22 -25.1624 72.1541 -45.7877 81.3643 -153.787 57.2781 86.1174 -47.639 20.2135 -8.8569 42.7181 -11.0955 2.28167 31.5585 3.68678 -10.8232 174.713 13.3402 76.3289 -20.0084 3.61972 -4.13955 41.56 2.34002 2.72097 46.2656 2.71374 17.7356 0.583131 8.09473 -90.1052 10.6863 1.11288 -0.310745 -0.984245 1.09814 -0.359446 -23.5232 1.15481 0.0381199 -3.51059 1.15482 0.0381308 86.0258 -45.609 -108.263 28.3047 -7.05304 14.0604 -7.17781 4.43664 -98.9936 -29.0823 -1.94803 2.48467 -100.249 -39.1491 59.1513 -64.2041 24.7914 41.7822 7.73624 5.78072 -63.935 10.4172 0.608934 1.86492 12.1792 13.6288 -7.07198 9.29333 17.6617 19.0234 
65.8294 96.0561 -23.3979 73.2141 -45.0718 85.3072 -155.552 53.377 89.5409 -42.8379 21.0168 -9.59357 41.2146 -12.1084 1.7809 35.4201 7.19708 -14.2546 175.081 9.00309 78.4689 -17.9671 3.17946 -4.35739 37.2593 3.5785 4.19637 25.3321 -1.24768 9.75957 0.831844 7.939 -90.2899 11.001 1.52179 -0.722193 -0.669244 1.48852 -0.788491 -23.2113 1.66845 -0.231335 -3.19865 1.66846 -0.231342 86.5189 -45.8058 -107.415 29.048 -10.0653 16.8399 -13.0512 6.0639 -101.225 -28.4383 -1.85724 2.61952 -99.0591 -38.8118 60.924 -65.5909 22.635 43.5475 5.09636 2.28781 -66.2097 11.4198 0.407212 -0.247429 10.0563 12.2925 -7.6293 10.1712 16.3804 17.8659 
71.0905 96.8834 -21.6207 73.0897 -43.0681 86.8354 -156.331 49.9383 89.9834 -39.6159 21.6639 -10.3998 41.9384 -11.7323 1.15544 29.7207 2.05692 -11.7763 175.331 7.4645 79.7084 -21.0201 3.91075 -4.53429 40.0056 2.92069 3.34711 20.0723 -2.21195 11.9382 0.842512 7.72881 -90.3015 11.4219 1.53562 -0.75638 -0.24841 1.50084 -0.823247 -22.7905 1.69193 -0.259784 -2.77787 1.69193 -0.259784 86.8087 -44.9476 -107.226 31.5142 -11.9371 19.5563 -16.7521 8.14217 -102.946 -27.4033 -2.05707 3.92729 -97.5006 -38.8604 63.4889 -64.9066 19.3603 43.19 3.85308 0.800466 -66.7374 12.6419 0.382413 -0.780364 9.45595 11.9125 -6.6218 10.1786 15.398 15.4568 
76.0371 96.7985 -20.0884 73.2883 -40.3049 88.1013 -157.152 46.2299 89.4035 -37.6047 21.4096 -10.7358 42.1968 -11.5319 1.20116 26.3182 -1.27409 -10.5615 175.628 7.19576 80.8962 -27.7169 4.99084 -4.64165 43.5607 2.13966 2.39349 22.5592 -1.82659 12.1575 0.833474 7.56674 -90.2574 11.7456 1.53679 -0.675106 0.0753932 1.50561 -0.742104 -22.4669 1.66863 -0.181909 -2.45425 1.66863 -0.18191 87.4296 -44.6588 -106.316 33.664 -13.2108 22.4151 -18.5597 8.22644 -102.312 -25.6808 -1.93251 4.03535 -96.357 -39.1132 65.4737 -62.8307 17.4519 41.7819 4.02671 1.07756 -65.9708 17.348 0.825368 0.845758 9.20967 10.9916 -6.35326 10.4925 14.2101 13.6701 
80.9884 95.9272 -18.6895 74.9649 -36.3701 90.7093 -158.733 41.2127 89.3525 -36.4829 20.2442 -10.0999 41.2984 -11.7454 3.60323 44.5491 13.1213 -28.2913 175.309 6.1306 82.4045 -35.4668 5.85952 -4.10718 45.1943 1.86637 2.0571 24.3949 -1.19821 9.08841 0.638717 7.57775 -90.2487 11.7217 1.15366 -0.617021 0.0511323 1.12539 -0.667205 -22.4879 1.28574 -0.241726 -2.47521 1.28576 -0.241732 87.1333 -45.0759 -106.664 35.3618 -14.328 24.8581 -20.9102 8.28762 -99.2443 -25.5375 -1.90621 4.08885 -95.3673 -40.2425 67.5269 -57.5803 13.7042 38.6035 0.0589737 -2.064 -65.0113 15.8051 1.19489 3.65238 9.41368 10.1557 -6.40482 10.4746 13.154 11.9428 
86.02 94.8288 -17.2998 74.8777 -34.1441 91.106 -159.535 37.6516 88.7082 -37.9601 20.8074 -10.5968 48.7387 -5.99775 7.5961 50.8701 16.837 -30.7087 175.771 6.91395 83.3314 -42.3894 6.31555 -4.25007 45.7375 1.25574 1.50674 22.2976 -2.17686 14.6855 0.635128 7.48801 -90.1256 11.9013 1.20376 -0.38113 0.230792 1.18582 -0.433761 -22.3089 1.26264 -0.00168339 -2.29622 1.26266 -0.00168266 86.4008 -45.431 -107.723 36.1962 -13.5355 27.4973 -18.0779 6.40623 -96.361 -22.2358 -1.68863 4.05868 -96.2591 -42.3117 66.8505 -51.3282 9.12129 35.1666 0.0516623 -2.66387 -62.8022 20.8593 1.23918 2.05205 8.72408 9.48289 -5.29002 11.5331 11.9836 9.69231 
90.8038 93.3875 -16.0924 74.2634 -33.3113 90.8511 -159.914 34.9638 87.7017 -41.0402 19.9278 -10.8452 57.5135 1.8362 11.2225 48.1401 16.4921 -22.879 177.975 10.0296 84.7818 -50.8608 5.86536 -5.59069 44.9419 1.06589 1.3693 23.6218 -1.95213 14.876 0.737194 7.36687 -89.9003 12.1403 1.51267 0.0323159 0.470229 1.5126 -0.0343152 -22.0714 1.43301 0.485538 -2.05878 1.433 0.485527 85.5156 -46.7024 -108.707 36.6026 -13.6595 29.3615 -15.3308 4.2827 -89.9359 -19.8439 -1.23015 2.31614 -97.0427 -44.1538 66.289 -44.2846 3.25614 32.0091 -1.52929 -5.16767 -63.9986 23.8978 1.74835 3.52992 7.98439 8.66714 -5.37886 12.9503 11.0172 8.03834 
95.1259 91.4087 -15.0579 74.0926 -30.659 91.0233 -161.298 32.9841 85.9912 -43.9796 21.3886 -9.83594 59.3026 5.71474 16.8968 60.3244 25.659 -22.0323 179.509 14.7082 86.5405 -61.1336 8.60306 -6.02299 44.2355 0.504024 0.931732 24.9254 -1.79526 15.9272 0.567013 7.40987 -89.6935 12.0519 1.27204 0.472082 0.381462 1.29161 0.415627 -22.1568 1.07134 0.832595 -2.14415 1.07133 0.83258 85.244 -47.7718 -108.775 36.8883 -16.0273 29.4554 -12.7004 1.6233 -82.7475 -18.4668 -1.01547 1.37331 -97.0426 -45.8354 66.8952 -37.6535 -1.24412 27.6993 -3.94261 -6.92064 -67.6475 30.2087 2.55579 4.6514 9.19639 8.18515 -5.54313 13.4441 10.2912 5.91887 
98.6576 89.5397 -13.9502 73.6743 -25.9059 90.4306 -164.234 32.0883 83.7279 -48.1288 21.1363 -7.38877 61.9522 8.80442 17.5396 64.714 27.6164 -25.4299 -179.989 21.91 88.461 -72.2278 13.1875 -5.76561 45.611 -0.97974 -0.302445 23.2727 -2.51452 19.1582 0.177414 7.50581 -89.3944 11.8577 0.637927 1.13948 0.186416 0.687428 1.11032 -22.345 0.265982 1.2785 -2.33239 0.265981 1.2785 84.316 -49.1268 -109.746 37.1066 -17.4717 29.089 -11.5062 -2.29117 -75.1189 -14.649 -1.03092 3.16062 -98.5274 -46.1204 64.7431 -30.7562 -5.87554 23.1925 -2.26736 -5.47704 -73.401 34.7471 3.65066 6.74118 10.2428 7.35616 -6.60583 14.2194 9.52598 4.41122 
102.284 88.1125 -12.9064 73.8822 -21.706 90.0587 -167.303 29.2493 82.2291 -49.1721 23.0828 -6.00597 63.5019 12.5925 21.5189 65.3641 28.9626 -23.1601 -179.562 30.071 90.2321 -81.4325 14.0078 -5.6259 45.1689 -1.44158 -0.690122 26.3424 -1.55286 16.4657 -0.102707 7.7142 -89.1865 11.4413 0.175716 1.60202 -0.230582 0.246055 1.59272 -22.758 -0.313804 1.58078 -2.74533 -0.313826 1.58077 84.0786 -49.9977 -109.813 37.5625 -19.7068 29.8158 -9.10329 -4.85111 -69.0702 -11.8536 -0.813606 2.78796 -100.233 -44.7077 61.6013 -25.4059 -9.55295 17.7588 3.73811 -3.18636 -80.1412 32.4942 3.38004 6.65137 11.3083 6.39852 -6.69925 15.2727 8.54522 3.57171 
106.614 87.329 -12.6032 72.9459 -19.166 90.9348 -169.116 26.5053 82.3011 -48.0904 23.2344 -5.15173 63.9733 15.0673 24.8059 70.2348 30.5256 -27.7153 -178.801 39.6564 93.0626 -86.7758 12.4463 -5.53754 45.7888 -1.42855 -0.720261 31.6388 -0.378058 13.9923 -0.289879 7.70459 -89.3046 11.4638 -0.251826 1.41117 -0.207885 -0.189484 1.42087 -22.7381 -0.664264 1.27029 -2.72549 -0.664286 1.27027 83.8149 -50.0156 -110.203 38.8469 -21.1568 32.933 -9.81433 -7.30347 -64.7894 -10.7366 -0.649513 1.57929 -100.691 -43.8201 60.5304 -21.2345 -12.9399 13.38 6.62401 -0.0128201 -89.6151 32.7509 3.44682 6.76921 11.8655 6.17347 -6.05196 15.6581 7.99573 2.48221 
111.538 87.635 -12.4051 73.0223 -15.7336 92.795 -171.037 21.734 83.7129 -44.326 25.7192 -4.325 61.3286 12.6356 25.3584 74.5424 33.6905 -27.2658 179.802 47.1395 96.2572 -87.5751 10.4964 -5.05856 48.0678 -1.26191 -0.620958 35.7257 0.408303 11.5543 -0.657144 7.69633 -89.5298 11.4859 -1.08768 1.0475 -0.185024 -1.04049 1.09434 -22.7222 -1.3522 0.672169 -2.70951 -1.35218 0.672164 82.7101 -50.6664 -111.627 40.2151 -22.0879 38.5743 -11.9485 -9.21322 -63.9523 -11.9566 -0.672688 1.14239 -99.5407 -41.9646 61.5234 -19.9606 -16.4454 10.7268 11.4139 -1.97126 -100.221 35.0918 3.74058 6.89808 11.5654 6.90956 -7.15233 14.8763 9.00627 2.82421 
117.405 89.0388 -12.2666 73.1151 -12.1538 94.1781 -173.279 15.7567 85.2613 -38.8944 26.2481 -2.63384 60.9736 9.1608 18.3733 72.6883 31.6005 -29.0501 178.232 52.0135 98.137 -83.3682 8.07875 -4.24319 50.3774 -0.741651 -0.243818 36.996 0.613505 11.4981 -1.16019 7.70491 -89.7995 11.4718 -2.21452 0.624873 -0.197437 -2.18489 0.721778 -22.7478 -2.2999 -0.0699215 -2.73511 -2.2999 -0.0699207 81.5076 -50.1764 -113.591 41.8249 -21.9533 44.2536 -14.5321 -9.93775 -64.9042 -12.6197 -0.718608 1.28569 -97.4773 -39.9238 63.9675 -21.1308 -18.8774 9.68591 13.387 -2.311 -109.538 35.6907 3.6176 6.35193 11.3295 8.16033 -7.37982 14.108 10.4738 4.05774 
